<svg width="41" height="41" viewBox="0 0 41 41" fill="none" xmlns="http://www.w3.org/2000/svg">
<path d="M20.4998 0.916992C9.68984 0.916992 0.916504 9.69033 0.916504 20.5003C0.916504 31.3103 9.68984 40.0837 20.4998 40.0837C31.3098 40.0837 40.0832 31.3103 40.0832 20.5003C40.0832 9.69033 31.3098 0.916992 20.4998 0.916992ZM20.4998 8.75033C24.2794 8.75033 27.354 11.8249 27.354 15.6045C27.354 19.3841 24.2794 22.4587 20.4998 22.4587C16.7203 22.4587 13.6457 19.3841 13.6457 15.6045C13.6457 11.8249 16.7203 8.75033 20.4998 8.75033ZM20.4998 36.167C16.5244 36.167 11.8244 34.5612 8.47567 30.527C11.9059 27.8357 16.1398 26.373 20.4998 26.373C24.8598 26.373 29.0938 27.8357 32.524 30.527C29.1753 34.5612 24.4753 36.167 20.4998 36.167Z" fill="#656565"/>
</svg>
